<svg width="48" height="48" viewBox="0 0 48 48" fill="none" xmlns="http://www.w3.org/2000/svg">
<path fill-rule="evenodd" clip-rule="evenodd" d="M0 24C0 10.7452 10.7452 0 24 0C37.2548 0 48 10.7452 48 24C48 37.2548 37.2548 48 24 48C10.7452 48 0 37.2548 0 24ZM24 10C20.1976 10 19.7216 10.0159 18.2283 10.084C16.7377 10.1521 15.7195 10.3892 14.8291 10.7355C13.8957 11.0864 13.0492 11.6371 12.3492 12.3501C11.6373 13.0493 11.0863 13.8953 10.7345 14.8291C10.3901 15.7195 10.1521 16.7387 10.084 18.2292C10.0168 19.7216 10 20.1967 10 24C10 27.8033 10.0159 28.2784 10.084 29.7717C10.1521 31.2623 10.3892 32.2805 10.7355 33.1709C11.0864 34.1043 11.6371 34.9508 12.3501 35.6508C13.0493 36.3627 13.8953 36.9137 14.8291 37.2655C15.7195 37.6108 16.7377 37.8479 18.2283 37.916C19.7216 37.9841 20.1976 38 24 38C27.8024 38 28.2784 37.9841 29.7717 37.916C31.2623 37.8479 32.2805 37.6108 33.1709 37.2645C34.1043 36.9136 34.9508 36.3629 35.6508 35.6499C36.3627 34.9507 36.9137 34.1047 37.2655 33.1709C37.6108 32.2805 37.8479 31.2623 37.916 29.7717C37.9841 28.2784 38 27.8024 38 24C38 20.1976 37.9841 19.7216 37.916 18.2283C37.8479 16.7377 37.6108 15.7195 37.2645 14.8291C36.9131 13.8949 36.362 13.0486 35.6499 12.3492C34.9507 11.6373 34.1047 11.0863 33.1709 10.7345C32.2805 10.3901 31.2613 10.1521 29.7708 10.084C28.2784 10.0168 27.8033 10 24 10ZM24 12.5228C27.738 12.5228 28.1813 12.5368 29.6579 12.604C31.0224 12.6665 31.7635 12.8933 32.2572 13.0865C32.9105 13.3395 33.3772 13.6437 33.8672 14.1328C34.3572 14.6228 34.6605 15.0895 34.9135 15.7428C35.1057 16.2365 35.3335 16.9776 35.396 18.3421C35.4632 19.8187 35.4772 20.262 35.4772 24C35.4772 27.738 35.4632 28.1813 35.396 29.6579C35.3335 31.0224 35.1067 31.7635 34.9135 32.2572C34.6894 32.8653 34.3319 33.4155 33.8672 33.8672C33.4155 34.332 32.8654 34.6895 32.2572 34.9135C31.7635 35.1057 31.0224 35.3335 29.6579 35.396C28.1813 35.4632 27.7389 35.4772 24 35.4772C20.2611 35.4772 19.8187 35.4632 18.3421 35.396C16.9776 35.3335 16.2365 35.1067 15.7428 34.9135C15.1347 34.6894 14.5845 34.3319 14.1328 33.8672C13.6682 33.4154 13.3107 32.8653 13.0865 32.2572C12.8943 31.7635 12.6665 31.0224 12.604 29.6579C12.5368 28.1813 12.5228 27.738 12.5228 24C12.5228 20.262 12.5368 19.8187 12.604 18.3421C12.6665 16.9776 12.8933 16.2365 13.0865 15.7428C13.3395 15.0895 13.6437 14.6228 14.1328 14.1328C14.5845 13.668 15.1346 13.3105 15.7428 13.0865C16.2365 12.8943 16.9776 12.6665 18.3421 12.604C19.8187 12.5368 20.262 12.5228 24 12.5228ZM22.2491 28.1595C22.7992 28.391 23.3887 28.5101 23.9841 28.5101C25.1865 28.5101 26.3397 28.0248 27.19 27.1608C28.0402 26.2968 28.5179 25.125 28.5179 23.9032C28.5179 22.6814 28.0402 21.5096 27.19 20.6456C26.3397 19.7816 25.1865 19.2963 23.9841 19.2963C23.3887 19.2963 22.7992 19.4154 22.2491 19.647C21.699 19.8785 21.1992 20.2178 20.7782 20.6456C20.3572 21.0734 20.0233 21.5813 19.7954 22.1402C19.5676 22.6992 19.4503 23.2982 19.4503 23.9032C19.4503 24.5082 19.5676 25.1073 19.7954 25.6662C20.0233 26.2251 20.3572 26.733 20.7782 27.1608C21.1992 27.5886 21.699 27.9279 22.2491 28.1595ZM19.0456 18.885C20.3554 17.5541 22.1318 16.8064 23.9841 16.8064C25.8364 16.8064 27.6128 17.5541 28.9226 18.885C30.2324 20.2159 30.9682 22.021 30.9682 23.9032C30.9682 25.7854 30.2324 27.5905 28.9226 28.9214C27.6128 30.2523 25.8364 31 23.9841 31C22.1318 31 20.3554 30.2523 19.0456 28.9214C17.7358 27.5905 17 25.7854 17 23.9032C17 22.021 17.7358 20.2159 19.0456 18.885ZM32.5165 17.8638C32.8261 17.5492 33 17.1225 33 16.6775C33 16.2326 32.8261 15.8059 32.5165 15.4913C32.2069 15.1767 31.7869 15 31.3491 15C30.9112 15 30.4913 15.1767 30.1817 15.4913C29.8721 15.8059 29.6982 16.2326 29.6982 16.6775C29.6982 17.1225 29.8721 17.5492 30.1817 17.8638C30.4913 18.1784 30.9112 18.3551 31.3491 18.3551C31.7869 18.3551 32.2069 18.1784 32.5165 17.8638Z" fill="white"/>
</svg>
